<?xml version="1.0" encoding="UTF-8"?>
<svg width="100px" height="100px" viewBox="0 0 100 100" version="1.1" xmlns="http://www.w3.org/2000/svg" xmlns:xlink="http://www.w3.org/1999/xlink">
    <title>instagram</title>
    <defs>
        <path d="M68.7145011,99.8561605 L31.4303362,99.8561605 L27.8641757,99.8518221 C26.8618636,99.8467684 25.8596357,99.8308601 24.8576681,99.8040998 C22.6667787,99.7780694 20.4802278,99.58718 18.3197072,99.2314317 C16.1568419,98.8605491 14.061449,98.1689086 12.1027874,97.1793709 C8.16745402,95.1754582 4.9675703,91.9770932 2.96178959,88.0427115 C1.97346545,86.0823995 1.28328678,83.9855431 0.914067245,81.8214534 C0.558035564,79.6596882 0.365155675,77.4741995 0.337060738,75.2834924 C0.311030369,74.2813232 0.29367679,73.279154 0.29367679,72.2769848 C0.285,71.0882646 0.285,69.8995445 0.285,68.7108243 L0.285,31.4353362 C0.285,30.2422777 0.285,29.0578959 0.29367679,27.8648373 C0.29728462,26.8625409 0.311746784,25.8603129 0.337060738,24.8583297 C0.363091106,22.6674403 0.553980477,20.4852278 0.914067245,18.3247072 C1.28259146,16.1604447 1.97280351,14.0634869 2.96178959,12.103449 C4.96796385,8.16679369 8.169519,4.96675731 12.1071258,2.96245119 C14.0662587,1.97404966 16.161478,1.28246646 18.3240456,0.910390456 C20.4845662,0.558980477 22.6711171,0.363752711 24.8620065,0.337722343 C25.8639897,0.312408389 26.8662177,0.297946225 27.8685141,0.294338395 L31.439013,0.29 L68.7145011,0.29 L72.285,0.294338395 C73.2858502,0.297977524 74.2866318,0.312439685 75.2871692,0.337722343 C77.482397,0.368091106 79.6689479,0.554642082 81.8294685,0.91472885 C83.9899892,1.28349241 86.0854338,1.97763557 88.0463883,2.96245119 C91.9825598,4.96725072 95.1825866,8.16727751 97.1873861,12.103449 C98.1754103,14.0638851 98.8655739,16.1606957 99.2351085,18.3247072 C99.5908568,20.4852278 99.7860846,22.6717787 99.812115,24.8626681 C99.8373976,25.8632055 99.8518598,26.8639871 99.8554989,27.8648373 L99.8598373,29.3745987 L99.8598373,70.1945553 L99.8554989,72.2769848 C99.8511605,73.2748156 99.8338069,74.2813232 99.812115,75.2834924 C99.7817462,77.4743818 99.5951952,79.6565944 99.2351085,81.8214534 C98.8665459,83.984322 98.1763253,86.0798434 97.1873861,88.0383731 C95.1823425,91.9743673 91.9823825,95.1743274 88.0463883,97.1793709 C86.0878014,98.1690888 83.992381,98.8607384 81.8294685,99.2314317 C79.6689479,99.58718 77.482397,99.7780694 75.2871692,99.8040998 C74.2866318,99.8293824 73.2858502,99.8438446 72.285,99.8474837 L68.7145011,99.8561605 Z" id="path-1"></path>
        <radialGradient cx="83.4012895%" cy="100%" fx="83.4012895%" fy="100%" r="120.112354%" id="radialGradient-3">
            <stop stop-color="#644CCD" stop-opacity="0" offset="0%"></stop>
            <stop stop-color="#634DCE" stop-opacity="0.10822771" offset="61.1724213%"></stop>
            <stop stop-color="#5D52D1" offset="100%"></stop>
        </radialGradient>
        <radialGradient cx="32.9479881%" cy="100%" fx="32.9479881%" fy="100%" r="86.3492024%" gradientTransform="translate(0.329480,1.000000),rotate(-103.586268),scale(1.000000,1.015878),translate(-0.329480,-1.000000)" id="radialGradient-4">
            <stop stop-color="#FFDB74" offset="0%"></stop>
            <stop stop-color="#FFB059" offset="18.6188811%"></stop>
            <stop stop-color="#FE3D41" offset="58.3030627%"></stop>
            <stop stop-color="#FE3C44" stop-opacity="0" offset="100%"></stop>
        </radialGradient>
        <rect id="path-5" x="0" y="0" width="100" height="100"></rect>
    </defs>
    <g id="instagram" stroke="none" stroke-width="1" fill="none" fill-rule="evenodd">
        <mask id="mask-2" fill="white">
            <use xlink:href="#path-1"></use>
        </mask>
        <use id="Mask" stroke-opacity="0.1" stroke="#000000" stroke-width="0.5" stroke-linejoin="round" xlink:href="#path-1"></use>
        <g id="Rectangle" mask="url(#mask-2)">
            <use fill="#C91CAC" xlink:href="#path-5"></use>
            <use fill="url(#radialGradient-3)" xlink:href="#path-5"></use>
            <use stroke="#979797" stroke-width="1" fill="url(#radialGradient-4)" xlink:href="#path-5"></use>
        </g>
        <circle id="Oval" fill="#FFFFFF" mask="url(#mask-2)" cx="69.7418653" cy="30.2581347" r="4.25813475"></circle>
        <path d="M76.0989315,15.9628418 C79.5211537,17.7930663 82.2069337,20.4788463 84.0371582,23.9010685 C85.8673827,27.3232907 86.8420516,30.7177962 86.8420516,40.078743 L86.8420516,59.921257 C86.8420516,69.2822038 85.8673827,72.6767093 84.0371582,76.0989315 C82.2069337,79.5211537 79.5211537,82.2069337 76.0989315,84.0371582 C72.6767093,85.8673827 69.2822038,86.8420516 59.921257,86.8420516 L40.078743,86.8420516 C30.7177962,86.8420516 27.3232907,85.8673827 23.9010685,84.0371582 C20.4788463,82.2069337 17.7930663,79.5211537 15.9628418,76.0989315 C14.1658941,72.7389315 13.1936737,69.4056495 13.1589143,60.425973 L13.1579484,40.078743 C13.1579484,30.7177962 14.1326173,27.3232907 15.9628418,23.9010685 C17.7930663,20.4788463 20.4788463,17.7930663 23.9010685,15.9628418 C27.2610685,14.1658941 30.5943505,13.1936737 39.574027,13.1589143 L59.921257,13.1579484 C69.2822038,13.1579484 72.6767093,14.1326173 76.0989315,15.9628418 Z M62.4363272,19.6164764 L37.5636728,19.6164764 C31.3230417,19.6164764 29.060038,20.2662557 26.7785565,21.4864054 C24.497075,22.706555 22.706555,24.497075 21.4864054,26.7785565 C20.2662557,29.060038 19.6164764,31.3230417 19.6164764,37.5636728 L19.6164764,37.5636728 L19.6164764,62.4363272 C19.6164764,68.6769583 20.2662557,70.939962 21.4864054,73.2214435 C22.706555,75.502925 24.497075,77.293445 26.7785565,78.5135946 C29.060038,79.7337443 31.3230417,80.3835236 37.5636728,80.3835236 L37.5636728,80.3835236 L62.4363272,80.3835236 C68.6769583,80.3835236 70.939962,79.7337443 73.2214435,78.5135946 C75.502925,77.293445 77.293445,75.502925 78.5135946,73.2214435 C79.7337443,70.939962 80.3835236,68.6769583 80.3835236,62.4363272 L80.3835236,62.4363272 L80.3835236,37.5636728 C80.3835236,31.3230417 79.7337443,29.060038 78.5135946,26.7785565 C77.293445,24.497075 75.502925,22.706555 73.2214435,21.4864054 C70.939962,20.2662557 68.6769583,19.6164764 62.4363272,19.6164764 L62.4363272,19.6164764 Z" id="Rectangle" fill="#FFFFFF" mask="url(#mask-2)"></path>
        <path d="M50,31.1461112 C60.4530764,31.1461112 68.926969,39.6200039 68.926969,50.0730803 C68.926969,60.5261566 60.4530764,69.0000493 50,69.0000493 C39.5469236,69.0000493 31.073031,60.5261566 31.073031,50.0730803 C31.073031,39.6200039 39.5469236,31.1461112 50,31.1461112 Z M50,37.6616169 C43.145338,37.6616169 37.5885366,43.2184183 37.5885366,50.0730803 C37.5885366,56.9277422 43.145338,62.4845436 50,62.4845436 C56.854662,62.4845436 62.4114634,56.9277422 62.4114634,50.0730803 C62.4114634,43.2184183 56.854662,37.6616169 50,37.6616169 Z" id="Oval" fill="#FFFFFF" mask="url(#mask-2)"></path>
    </g>
</svg>