<svg width="24" height="24" xmlns="http://www.w3.org/2000/svg"><g fill-rule="nonzero" fill="none"><circle fill="#1DA1F2" cx="12" cy="12" r="12"/><path d="M9.8 18.33c5.33 0 8.24-4.41 8.24-8.23l-.01-.37c.56-.41 1.06-.92 1.45-1.5-.52.22-1.08.38-1.67.45a2.9 2.9 0 001.28-1.6c-.56.33-1.18.57-1.84.7a2.9 2.9 0 00-4.93 2.64A8.2 8.2 0 016.36 7.4a2.9 2.9 0 00.9 3.86 2.84 2.84 0 01-1.3-.36v.03c0 1.4.99 2.57 2.31 2.84a2.88 2.88 0 01-1.3.05 2.89 2.89 0 002.7 2 5.82 5.82 0 01-4.29 1.2 8.06 8.06 0 004.42 1.31" fill="#FFF"/></g></svg>
