<svg width="24" height="24" xmlns="http://www.w3.org/2000/svg" xmlns:xlink="http://www.w3.org/1999/xlink"><defs><path id="a" d="M.01.01H24v16.9H.01z"/></defs><g fill="none" fill-rule="evenodd"><g transform="translate(0 3.55)"><mask id="b" fill="#fff"><use xlink:href="#a"/></mask><path d="M23.5 2.64A3.02 3.02 0 0021.38.5C19.5 0 12 0 12 0S4.5 0 2.62.5A3.02 3.02 0 00.5 2.64C0 4.52 0 8.45 0 8.45s0 3.93.5 5.82a3.02 3.02 0 002.12 2.13c1.87.5 9.38.5 9.38.5s7.5 0 9.38-.5a3.02 3.02 0 002.12-2.13c.5-1.89.5-5.82.5-5.82s0-3.93-.5-5.81" fill="#D9252A" mask="url(#b)"/></g><path fill="#FFFFFE" d="M9.55 15.57L15.82 12 9.55 8.43v7.14"/></g></svg>
