<svg width="180" height="65" xmlns="http://www.w3.org/2000/svg"><g fill="none" fill-rule="nonzero"><path d="M33 5h8.053c6.24 0 8.503.65 10.785 1.87a12.721 12.721 0 015.292 5.292C58.35 14.444 59 16.707 59 22.947V31H33V5z" fill="#31A64F"/><path d="M31 5h-8.053c-6.24 0-8.503.65-10.785 1.87a12.721 12.721 0 00-5.292 5.292C5.65 14.444 5 16.707 5 22.947V31h26V5z" fill="#363636"/><path d="M31 59h-8.053c-6.24 0-8.503-.65-10.785-1.87a12.721 12.721 0 01-5.292-5.292C5.65 49.556 5 47.293 5 41.053V33h26v26z" fill="#31A64F"/><path d="M33 59h8.053c6.24 0 8.503-.65 10.785-1.87a12.721 12.721 0 005.292-5.292C58.35 49.556 59 47.293 59 41.053V33H33v26zM73.56 54l2.255-11.897H86.45L88.652 54h4.109L83.308 9.474h-4.405L69.503 54h4.056zm12.326-14.958h-9.48l4.726-24.01 4.754 24.01zM103.634 54V37.457l3.598-6.66L117.357 54h4.163l-11.172-25.405 9.211-19.121h-4.028l-11.897 23.471V9.474h-4.217V54h4.217zm32.653.537c3.079 0 5.554-.877 7.425-2.632 1.871-1.754 2.807-4.252 2.807-7.492 0-2.31-.582-4.454-1.746-6.432-1.164-1.979-2.757-3.935-4.78-5.868l-7.842-7.44c-1.146-1.11-1.956-2.161-2.43-3.155-.475-.993-.712-2.099-.712-3.316 0-1.952.56-3.411 1.678-4.378 1.12-.967 2.654-1.477 4.606-1.53h.322c2.22 0 3.832.716 4.834 2.148 1.039 1.504 1.683 3.76 1.934 6.767l3.545-.913c-.287-3.992-1.307-6.884-3.062-8.674-1.719-1.754-4.198-2.632-7.439-2.632h-.188c-3.08.018-5.519.86-7.318 2.525-1.8 1.665-2.699 4.01-2.699 7.036 0 3.401 1.343 6.391 4.028 8.97l7.896 7.573a55.287 55.287 0 012.27 2.336 18.344 18.344 0 011.664 2.162 8.924 8.924 0 011.155 2.444c.242.832.363 1.723.363 2.672 0 4.297-2.095 6.445-6.285 6.445-1.056 0-1.991-.17-2.806-.51-.815-.34-1.486-.788-2.014-1.343-.528-.555-.976-1.266-1.343-2.135a14.284 14.284 0 01-.832-2.658 32.225 32.225 0 01-.47-3.13l-3.733 1.075c.286 3.814 1.338 6.781 3.155 8.903 1.817 2.121 4.49 3.182 8.017 3.182zm27.63.027c1.72 0 3.241-.22 4.566-.658 1.325-.439 2.417-1.047 3.276-1.826.86-.779 1.562-1.75 2.108-2.914a14.363 14.363 0 001.155-3.76c.224-1.343.336-2.846.336-4.511v-18.53c0-2.078-.193-3.904-.577-5.48-.385-1.575-1.012-2.971-1.88-4.189-.869-1.217-2.055-2.14-3.559-2.766-1.504-.626-3.312-.94-5.425-.94-2.112 0-3.92.314-5.424.94-1.504.627-2.69 1.544-3.559 2.753-.868 1.208-1.495 2.6-1.88 4.176-.384 1.575-.577 3.41-.577 5.505v18.477c0 2.112.188 3.97.564 5.572.376 1.603.99 3.035 1.84 4.297.85 1.262 2.032 2.22 3.545 2.874 1.512.653 3.343.98 5.491.98zm0-3.384c-1.432 0-2.631-.215-3.598-.644-.967-.448-1.705-1.11-2.216-1.988a9.229 9.229 0 01-1.074-2.927c-.206-1.074-.309-2.363-.309-3.867V21.612c0-1.504.103-2.788.31-3.853a8.921 8.921 0 011.073-2.887c.51-.86 1.25-1.5 2.216-1.92.967-.421 2.166-.632 3.598-.632 1.433 0 2.632.21 3.6.631.966.421 1.704 1.061 2.215 1.92.51.86.868 1.822 1.074 2.888.206 1.065.309 2.35.309 3.853v20.142c0 1.504-.103 2.793-.31 3.867a9.229 9.229 0 01-1.073 2.927c-.51.878-1.25 1.536-2.216 1.974-.967.439-2.166.658-3.599.658z" fill="#363636"/></g></svg>
