<svg xmlns="http://www.w3.org/2000/svg" viewBox="0 0 24 24"><g fill="none" fill-rule="evenodd"><path d="M17.32 12h.22c2.34.1 3.8 1.14 4.46 2.83.45 1.16.48 2.46.28 3.82-.29 1.9-1.61 3-3.07 2.43-.58-.23-.9-.57-1-1.2-.78.9-1.53 1.2-2.47 1.2-1.23 0-2-1.05-1.64-3.05.5-2.87 2.9-4.03 4.7-2.33l.1-.47.98.24-.21.88-.18.76-.09.45-.07.4-.06.37-.03.17-.03.3-.02.27v.23c0 .51.13.75.38.85.78.3 1.52-.31 1.72-1.64.18-1.21.15-2.35-.23-3.32-.51-1.32-1.62-2.1-3.57-2.2-3.86-.17-6.47 6.18-4.3 8.31 1.6 1.58 4.55 1.56 6.17.54l.17-.11.58.81c-1.95 1.4-5.58 1.48-7.62-.52C9.72 19.29 12.65 12 17.32 12zm-2.24 6.2c-.38 2.19 1.3 2.75 3.12.51l.02-.14.05-.37.06-.4.04-.22.1-.45.1-.5h0v-.01c-1.25-1.61-3.08-.74-3.49 1.58zM21 4.25c.97 0 1.75.78 1.75 1.75h0v9.64a6.1 6.1 0 00-.29-1 4.7 4.7 0 00-1.2-1.8l-.01-6.23-8.8 6.5a.75.75 0 01-.8.05l-.1-.06-8.8-6.48V18c0 .12.08.22.2.24l.05.01h7.94a6.4 6.4 0 000 1.5H3c-.97 0-1.75-.78-1.75-1.75h0V6c0-.97.78-1.75 1.75-1.75h0zm-1.1 1.5H4.1l7.9 5.82 7.9-5.82z" stroke="#FFF" stroke-width="1.5" stroke-linejoin="round"/><path d="M17.32 12h.22c2.34.1 3.8 1.14 4.46 2.83.45 1.16.48 2.46.28 3.82-.29 1.9-1.61 3-3.07 2.43-.58-.23-.9-.57-1-1.2-.78.9-1.53 1.2-2.47 1.2-1.23 0-2-1.05-1.64-3.05.5-2.87 2.9-4.03 4.7-2.33l.1-.47.98.24-.21.88-.18.76-.09.45-.07.4-.06.37-.03.17-.03.3-.02.27v.23c0 .51.13.75.38.85.78.3 1.52-.31 1.72-1.64.18-1.21.15-2.35-.23-3.32-.51-1.32-1.62-2.1-3.57-2.2-3.86-.17-6.47 6.18-4.3 8.31 1.6 1.58 4.55 1.56 6.17.54l.17-.11.58.81c-1.95 1.4-5.58 1.48-7.62-.52C9.72 19.29 12.65 12 17.32 12zm-2.24 6.2c-.38 2.19 1.3 2.75 3.12.51l.02-.14.05-.37.06-.4.04-.22.1-.45.1-.5v-.01c-1.25-1.61-3.08-.74-3.49 1.58zM21 4.25c.97 0 1.75.78 1.75 1.75v9.64a6.1 6.1 0 00-.29-1 4.7 4.7 0 00-1.2-1.8l-.01-6.23-8.8 6.5a.75.75 0 01-.8.05l-.1-.06-8.8-6.48V18c0 .12.08.22.2.24l.05.01h7.94a6.4 6.4 0 000 1.5H3c-.97 0-1.75-.78-1.75-1.75V6c0-.97.78-1.75 1.75-1.75zm-1.1 1.5H4.1l7.9 5.82 7.9-5.82z" fill="#000" fill-rule="nonzero"/></g></svg>
