<svg xmlns="http://www.w3.org/2000/svg" viewBox="0 0 24 24"><g fill="none" fill-rule="evenodd"><path d="M21 4.25c.97 0 1.75.78 1.75 1.75h0v12c0 .97-.78 1.75-1.75 1.75h0H3c-.97 0-1.75-.78-1.75-1.75h0V6c0-.97.78-1.75 1.75-1.75h0zm.25 2.36l-8.8 6.5a.75.75 0 01-.8.05l-.1-.06-8.8-6.48V18c0 .12.08.22.2.24l.05.01h18c.14 0 .25-.11.25-.25h0V6.61zm-1.35-.86H4.1l7.9 5.82 7.9-5.82z" stroke="#FFF" stroke-width="1.5"/><path d="M21 4.25c.97 0 1.75.78 1.75 1.75v12c0 .97-.78 1.75-1.75 1.75H3c-.97 0-1.75-.78-1.75-1.75V6c0-.97.78-1.75 1.75-1.75zm.25 2.36l-8.8 6.5a.75.75 0 01-.8.05l-.1-.06-8.8-6.48V18c0 .12.08.22.2.24l.05.01h18c.14 0 .25-.11.25-.25V6.61zm-1.35-.86H4.1l7.9 5.82 7.9-5.82z" fill="#000" fill-rule="nonzero"/></g></svg>
