<svg width="24" height="24" xmlns="http://www.w3.org/2000/svg"><path d="M9.5 1.75c2.14 0 4.078.867 5.48 2.27a7.726 7.726 0 012.27 5.48c0 1.576-.47 3.043-1.279 4.266l-.178.259 5.59 5.591a1.246 1.246 0 010 1.768 1.245 1.245 0 01-1.548.175l-.112-.08-5.698-5.687A7.715 7.715 0 019.5 17.25a7.726 7.726 0 01-5.48-2.27A7.726 7.726 0 011.75 9.5c0-2.14.867-4.078 2.27-5.48A7.726 7.726 0 019.5 1.75zm0 2.5c-1.45 0-2.762.588-3.712 1.538A5.234 5.234 0 004.25 9.5c0 1.45.588 2.762 1.538 3.712A5.234 5.234 0 009.5 14.75c1.45 0 2.762-.588 3.712-1.538A5.234 5.234 0 0014.75 9.5c0-1.45-.588-2.762-1.538-3.712A5.234 5.234 0 009.5 4.25z" stroke="#FFF" fill="#000" fill-rule="nonzero"/></svg>