<svg xmlns="http://www.w3.org/2000/svg" viewBox="0 0 24 24"><g fill="none" fill-rule="evenodd"><path d="M12 1.25a10.75 10.75 0 110 21.5 10.75 10.75 0 010-21.5zM7.92 17.84c.82 1.58 1.89 2.8 2.92 3.34l.66.06v-3.25h-.12l-.7-.01-.75-.03-.82-.04-.94-.06zm8.15.02l-.87.04-.73.04-1.01.04-.62.01h-.34v3.25l.66-.06c1.03-.55 2.1-1.75 2.9-3.32zm3.27-.23l-.3.03-1.38.1-.45.03a11.5 11.5 0 01-1.83 2.82 9.28 9.28 0 003.96-2.98zm-14.7-.03a9.28 9.28 0 003.98 3.01c-.7-.77-1.33-1.74-1.84-2.85l-1.33-.1zm6.86-5.1H6.51a13 13 0 00.94 4.3l.78.05.93.06.8.04.75.03.68.01h.11V12.5zm5.99 0H12.5V17h.33l.93-.03 1.03-.05 1.13-.06.62-.03a13 13 0 00.95-4.33zm3.75 0h-2.75a13.9 13.9 0 01-.85 4.26l.4-.03 1.4-.1.6-.05a9.2 9.2 0 001.2-4.08zm-15.73 0H2.76a9.2 9.2 0 001.18 4.03l1.6.14.81.06a13.9 13.9 0 01-.84-4.23zm.84-5.23l-.82.06-1.6.13a9.2 9.2 0 00-1.17 4.04h2.75c.06-1.49.36-2.93.84-4.23zm5.04-.26l-.68.01-.74.03-.81.04-.93.05-.78.05a13 13 0 00-.94 4.31h4.99V7a39 39 0 00-.1 0zm1.11 0v4.49h4.99a13 13 0 00-.95-4.33l-.62-.03-1.13-.06-1.03-.05-.93-.02h-.33zm5.99 4.49h2.75a9.2 9.2 0 00-1.2-4.08l-.6-.04-1.4-.1-.4-.04c.48 1.31.8 2.76.85 4.26zM8.62 3.39l-.16.06A9.28 9.28 0 004.64 6.4l.81-.06 1.33-.1c.51-1.1 1.14-2.08 1.84-2.85zm6.76 0l.05.04c.67.76 1.28 1.7 1.78 2.78l.45.03 1.38.1.3.03a9.28 9.28 0 00-3.96-2.98zm-3.88-.63a9.3 9.3 0 00-.66.06c-1.03.55-2.1 1.76-2.92 3.34l.25-.01.94-.06.82-.04.76-.03.69-.01h.12zm1 0V6h.34l.62.02 1 .04.74.03.87.05c-.82-1.57-1.88-2.77-2.9-3.32a8.81 8.81 0 00-.67-.06z" stroke="#FFF" stroke-width="1.5"/><path d="M12 1.25a10.75 10.75 0 110 21.5 10.75 10.75 0 010-21.5zM7.92 17.84c.82 1.58 1.89 2.8 2.92 3.34l.66.06v-3.25h-.12l-.7-.01-.75-.03-.82-.04-.94-.06zm8.15.02l-.87.04-.73.04-1.01.04-.62.01h-.34v3.25l.66-.06c1.03-.55 2.1-1.75 2.9-3.32zm3.27-.23l-.3.03-1.38.1-.45.03a11.5 11.5 0 01-1.83 2.82 9.28 9.28 0 003.96-2.98zm-14.7-.03a9.28 9.28 0 003.98 3.01c-.7-.77-1.33-1.74-1.84-2.85l-1.33-.1zm6.86-5.1H6.51a13 13 0 00.94 4.3l.78.05.93.06.8.04.75.03.68.01h.11V12.5zm5.99 0H12.5V17h.33l.93-.03 1.03-.05 1.13-.06.62-.03a13 13 0 00.95-4.33zm3.75 0h-2.75a13.9 13.9 0 01-.85 4.26l.4-.03 1.4-.1.6-.05a9.2 9.2 0 001.2-4.08zm-15.73 0H2.76a9.2 9.2 0 001.18 4.03l1.6.14.81.06a13.9 13.9 0 01-.84-4.23zm.84-5.23l-.82.06-1.6.13a9.2 9.2 0 00-1.17 4.04h2.75c.06-1.49.36-2.93.84-4.23zm5.04-.26l-.68.01-.74.03-.81.04-.93.05-.78.05a13 13 0 00-.94 4.31h4.99V7a39 39 0 00-.1 0zm1.11 0v4.49h4.99a13 13 0 00-.95-4.33l-.62-.03-1.13-.06-1.03-.05-.93-.02h-.33zm5.99 4.49h2.75a9.2 9.2 0 00-1.2-4.08l-.6-.04-1.4-.1-.4-.04c.48 1.31.8 2.76.85 4.26zM8.62 3.39l-.16.06A9.28 9.28 0 004.64 6.4l.81-.06 1.33-.1c.51-1.1 1.14-2.08 1.84-2.85zm6.76 0l.05.04c.67.76 1.28 1.7 1.78 2.78l.45.03 1.38.1.3.03a9.28 9.28 0 00-3.96-2.98zm-3.88-.63a9.3 9.3 0 00-.66.06c-1.03.55-2.1 1.76-2.92 3.34l.25-.01.94-.06.82-.04.76-.03.69-.01h.12zm1 0V6h.34l.62.02 1 .04.74.03.87.05c-.82-1.57-1.88-2.77-2.9-3.32a8.81 8.81 0 00-.67-.06z" fill="#000" fill-rule="nonzero"/></g></svg>
